<svg version="1.1" xmlns="http://www.w3.org/2000/svg" width="100%" height="100%" viewBox="0 0 96.000000 96.000000" preserveAspectRatio="xMidYMid meet">
<g transform="translate(0.000000,96.000000) scale(0.100000,-0.100000)" stroke="none">
<path fill="#000000" d="M210 827 c-49 -16 -123 -93 -138 -143 -33 -111 -9 -153 223 -384
l185 -185 185 185 c232 231 256 273 223 384 -16 54 -90 128 -144 144 -77 23
-139 12 -218 -38 l-48 -31 -39 26 c-74 52 -152 66 -229 42z m155 -71 c28 -13
65 -38 82 -56 l33 -32 32 32 c40 40 122 80 163 80 109 -1 192 -116 150 -209
-10 -22 -85 -106 -181 -202 l-164 -164 -165 165 c-206 206 -219 229 -172 320
16 33 34 51 67 68 56 28 92 28 155 -2z"></path>
<path fill="currentColor" d="M618 573 l-108 -108 -50 50 -50 49 -22 -22 -23 -22 73 -73 72 -72
132 132 c131 131 132 132 113 153 -10 11 -21 20 -24 20 -3 0 -54 -48 -113
-107z"></path>
</g>
</svg>