<?xml version="1.0" encoding="UTF-8" standalone="no"?>
<svg xmlns:svg="http://www.w3.org/2000/svg" xmlns="http://www.w3.org/2000/svg" xmlns:xlink="http://www.w3.org/1999/xlink" version="1.0" width="64px" height="64px" viewBox="0 0 128 128" xml:space="preserve">
    <g>
        <path d="M75.44 9.02C74.04 12.28 64.17 19.3 64 19.42c-.17-.12-10.05-7.14-11.44-10.4A6.45 6.45 0 0 1 64 3.12 6.45 6.45 0 0 1 75.44 9z" fill="#000" />
        <path d="M75.44 9.02C74.04 12.28 64.17 19.3 64 19.42c-.17-.12-10.05-7.14-11.44-10.4A6.45 6.45 0 0 1 64 3.12 6.45 6.45 0 0 1 75.44 9z" fill="#f8f8f8" transform="rotate(30 64 64)" />
        <path d="M75.44 9.02C74.04 12.28 64.17 19.3 64 19.42c-.17-.12-10.05-7.14-11.44-10.4A6.45 6.45 0 0 1 64 3.12 6.45 6.45 0 0 1 75.44 9z" fill="#e8e8e8" transform="rotate(60 64 64)" />
        <path d="M75.44 9.02C74.04 12.28 64.17 19.3 64 19.42c-.17-.12-10.05-7.14-11.44-10.4A6.45 6.45 0 0 1 64 3.12 6.45 6.45 0 0 1 75.44 9z" fill="#d4d4d4" transform="rotate(90 64 64)" />
        <path d="M75.44 9.02C74.04 12.28 64.17 19.3 64 19.42c-.17-.12-10.05-7.14-11.44-10.4A6.45 6.45 0 0 1 64 3.12 6.45 6.45 0 0 1 75.44 9z" fill="#bebebe" transform="rotate(120 64 64)" />
        <path d="M75.44 9.02C74.04 12.28 64.17 19.3 64 19.42c-.17-.12-10.05-7.14-11.44-10.4A6.45 6.45 0 0 1 64 3.12 6.45 6.45 0 0 1 75.44 9z" fill="#a6a6a6" transform="rotate(150 64 64)" />
        <path d="M75.44 9.02C74.04 12.28 64.17 19.3 64 19.42c-.17-.12-10.05-7.14-11.44-10.4A6.45 6.45 0 0 1 64 3.12 6.45 6.45 0 0 1 75.44 9z" fill="#8e8e8e" transform="rotate(180 64 64)" />
        <path d="M75.44 9.02C74.04 12.28 64.17 19.3 64 19.42c-.17-.12-10.05-7.14-11.44-10.4A6.45 6.45 0 0 1 64 3.12 6.45 6.45 0 0 1 75.44 9z" fill="#737373" transform="rotate(210 64 64)" />
        <path d="M75.44 9.02C74.04 12.28 64.17 19.3 64 19.42c-.17-.12-10.05-7.14-11.44-10.4A6.45 6.45 0 0 1 64 3.12 6.45 6.45 0 0 1 75.44 9z" fill="#5a5a5a" transform="rotate(240 64 64)" />
        <path d="M75.44 9.02C74.04 12.28 64.17 19.3 64 19.42c-.17-.12-10.05-7.14-11.44-10.4A6.45 6.45 0 0 1 64 3.12 6.45 6.45 0 0 1 75.44 9z" fill="#414141" transform="rotate(270 64 64)" />
        <path d="M75.44 9.02C74.04 12.28 64.17 19.3 64 19.42c-.17-.12-10.05-7.14-11.44-10.4A6.45 6.45 0 0 1 64 3.12 6.45 6.45 0 0 1 75.44 9z" fill="#2a2a2a" transform="rotate(300 64 64)" />
        <path d="M75.44 9.02C74.04 12.28 64.17 19.3 64 19.42c-.17-.12-10.05-7.14-11.44-10.4A6.45 6.45 0 0 1 64 3.12 6.45 6.45 0 0 1 75.44 9z" fill="#151515" transform="rotate(330 64 64)" />
        <animateTransform attributeName="transform" type="rotate" values="0 64 64;30 64 64;60 64 64;90 64 64;120 64 64;150 64 64;180 64 64;210 64 64;240 64 64;270 64 64;300 64 64;330 64 64" calcMode="discrete" dur="1080ms" repeatCount="indefinite"></animateTransform>
    </g>
    <style>
        @media (prefers-color-scheme: light) { :root { filter: none; } }
        @media (prefers-color-scheme: dark) { :root { filter: invert(100%); } }
    </style>
</svg>