<?xml version="1.0" encoding="iso-8859-1"?>
<!-- Generator: Adobe Illustrator 19.0.0, SVG Export Plug-In . SVG Version: 6.00 Build 0)  -->
<svg version="1.1" id="Layer_1" xmlns="http://www.w3.org/2000/svg" xmlns:xlink="http://www.w3.org/1999/xlink" x="0px" y="0px"
	 viewBox="0 0 512.062 512.062" style="enable-background:new 0 0 512.062 512.062;" xml:space="preserve">
<g transform="translate(-1)">
	<g>
		<g>
			<path d="M257.031,136.595c-103.518,0-187.733,84.215-187.733,187.733s84.215,187.733,187.733,187.733
				s187.733-84.215,187.733-187.733S360.549,136.595,257.031,136.595z M168.941,417.495c-1.647,1.519-3.729,2.278-5.803,2.278
				c-2.287,0-4.574-0.922-6.255-2.739c-19.277-20.796-31.437-46.566-35.174-74.505c-0.631-4.676,2.654-8.969,7.322-9.591
				c4.659-0.64,8.969,2.645,9.591,7.322c3.268,24.431,13.918,46.976,30.771,65.178C172.602,408.894,172.397,414.295,168.941,417.495
				z M185.266,439.307c-4.719,0-8.533-3.814-8.533-8.533c0-4.71,3.814-8.533,8.533-8.533c4.71,0,8.533,3.823,8.533,8.533
				C193.799,435.492,189.976,439.307,185.266,439.307z M257.031,460.862c-16.887,0-33.391-3.063-49.033-9.097
				c-4.395-1.707-6.588-6.639-4.881-11.042c1.698-4.395,6.647-6.562,11.034-4.89c13.67,5.291,28.1,7.962,42.88,7.962
				c4.719,0,8.533,3.823,8.533,8.533S261.75,460.862,257.031,460.862z"/>
			<path d="M117.841,174.278c18.807-17.459,40.892-31.411,65.212-40.866c-1.374-20.335-2.295-39.595-2.688-58.001
				c26.428-4.668,52.796-7.117,76.663-7.117c24.03,0,48.538,2.278,76.587,7.151c-0.401,19.166-1.271,38.383-2.543,57.992
				c24.337,9.472,46.43,23.45,65.246,40.934c3.797-42.394,5.828-84.454,5.811-125.005c1.186-17.041-11.87-33.016-29.44-36.301
				C294.225-4.35,216.41-4.341,141.76,13.007c-17.843,3.345-30.908,19.319-29.747,35.772
				C112.013,89.764,114.044,131.885,117.841,174.278z"/>
		</g>
	</g>
</g>
<g>
</g>
<g>
</g>
<g>
</g>
<g>
</g>
<g>
</g>
<g>
</g>
<g>
</g>
<g>
</g>
<g>
</g>
<g>
</g>
<g>
</g>
<g>
</g>
<g>
</g>
<g>
</g>
<g>
</g>
</svg>
