<?xml version="1.0" encoding="iso-8859-1"?>
<!-- Generator: Adobe Illustrator 18.1.1, SVG Export Plug-In . SVG Version: 6.00 Build 0)  -->
<svg version="1.1" id="Capa_1" xmlns="http://www.w3.org/2000/svg" xmlns:xlink="http://www.w3.org/1999/xlink" x="0px" y="0px"
	 viewBox="0 0 50.463 50.463" style="enable-background:new 0 0 50.463 50.463;" xml:space="preserve">
<g>
	<g>
		<path style="fill:#010002;" d="M47.923,29.694c0.021-0.601-0.516-1.063-0.901-1.515c-0.676-2.733-2.016-5.864-3.961-8.971
			C39.942,14.23,31.688,6.204,28.553,4.966c-0.158-0.062-0.299-0.097-0.429-0.126c-0.313-1.013-0.479-1.708-1.698-2.521
			c-3.354-2.236-7.099-2.866-9.578-1.843c-2.481,1.023-3.859,6.687-1.19,8.625c2.546,1.857,7.583-1.888,9.195,0.509
			c1.609,2.396,3.386,10.374,6.338,15.473c-0.746-0.102-1.514-0.156-2.307-0.156c-3.406,0-6.467,0.998-8.63,2.593
			c-1.85-2.887-5.08-4.806-8.764-4.806c-3.82,0-7.141,2.064-8.95,5.13v22.619h4.879l1.042-1.849
			c3.354-1.287,7.32-4.607,10.076-8.147C29.551,44.789,47.676,36.789,47.923,29.694z"/>
	</g>
</g>
<g>
</g>
<g>
</g>
<g>
</g>
<g>
</g>
<g>
</g>
<g>
</g>
<g>
</g>
<g>
</g>
<g>
</g>
<g>
</g>
<g>
</g>
<g>
</g>
<g>
</g>
<g>
</g>
<g>
</g>
</svg>
